<svg xmlns="http://www.w3.org/2000/svg" xmlns:xlink="http://www.w3.org/1999/xlink" width="120.023" height="130.626" viewBox="0 0 120.023 130.626"><defs><clipPath id="a"><rect width="120.023" height="130.626" fill="none"/></clipPath></defs><g clip-path="url(#a)"><path d="M91.277,75.921c-9.787,6.336-21.316,17.27-30.15,17.27a8.742,8.742,0,0,1-9.173-7.481,10.722,10.722,0,0,1-.113-1.58c.262-8.124,5.4-14.864,8.442-18.154-.26-.964-.469-1.9-.63-2.749C58.7,58.2,54.931,30.25,54.931,30.25S52.776,13.737,40.874,10.363c.3,1.911,6.928,34.341,8.031,40.167a55.129,55.129,0,0,1,.51,12.849c-.657,4.369-4.682,8.719-10.322,12.65,0,0-20.63,14.83-39.084,16.924v10.635H103.747v-33.4a38.4,38.4,0,0,0-12.47,5.747" transform="translate(0.001 0.164)" fill="#fff"/><path d="M.009,0V88.1c19.734-2.848,37.234-15.374,37.234-15.374,7-4.552,10.714-8.548,10.714-9.5A128.655,128.655,0,0,0,45.346,49.87S38.217,14.442,37.71,11.035a10.225,10.225,0,0,1,1.51-6.427s15.243.533,18.6,25.63S61.7,61.363,63.1,64.91s2.742,6.359,6.156,5.619A6.585,6.585,0,0,0,73.2,67.923a13.765,13.765,0,0,0-3.464-6.248l.508-5.474A16.367,16.367,0,0,1,74.76,66.355c0,5.623-1.805,8.586-6.682,9.293-3.929.562-6.382-4.5-7.69-9.1A43.161,43.161,0,0,0,54.241,80.33a8.228,8.228,0,0,0-.113,2.236,5.655,5.655,0,0,0,6.059,5.641c5.028,0,13.876-5.757,24.66-13a54.767,54.767,0,0,1,18.9-9.692V0ZM62.083,22.913h0c-.395-.183-.451-.366-.3-.873a12.132,12.132,0,0,1,.478-1.252c.208-.483.487-.652,1-.472a5.346,5.346,0,0,1,1.406.749A7.966,7.966,0,0,1,67.325,24.9c.147.415.451,1.239.451,1.239l.126.3s.451-2.972.706-4.287a15.654,15.654,0,0,1,.564-1.88,2.466,2.466,0,0,1,.289-.555c.5-.767,1.083-1.081,1.672-.918.754.21,1.681,1.173,1.609,1.859a9.026,9.026,0,0,1-.63,1.828c-.334-.436-.533-.713-.751-.975-.742-.878-1.32-.878-1.819.153a10.705,10.705,0,0,0-.754,2.552c-.278,1.4-.451,2.823-.7,4.229a2.586,2.586,0,0,1-.433.948,18.447,18.447,0,0,0-3.225-5.982.654.654,0,0,1-.736.205h0l-.079-.029h0c-.327-.138-1.528-.677-1.528-.677m9.773,27.079-5.614-3.281,2.063-3.529-4.937-2.9,2.645-4.513,5.612,3.292-2.06,3.532,4.949,2.9Z" transform="translate(0 -0.002)" fill="#fff"/><g transform="translate(0 98.19)"><path d="M11.057,127.524q-.517-.612-1.106-1.354c-.39-.49-.8-1-1.221-1.537s-.83-1.049-1.223-1.541-.747-.936-1.063-1.343l-.485-.623a9.073,9.073,0,0,0,1.083-.311,6.2,6.2,0,0,0,1.58-.826,4.852,4.852,0,0,0,1.252-1.354,4.163,4.163,0,0,0,.12-3.82,3.249,3.249,0,0,0-1.1-1.189,4.7,4.7,0,0,0-1.58-.634,8.918,8.918,0,0,0-1.866-.187H1.7c-1,0-1.331,0-1.417-.014l-.282,0,.014.284Q.081,114.564.138,116c.038.925.056,1.88.056,2.934v3.893c0,1.029-.018,2.017-.056,2.934-.038.955-.124,2.85-.124,2.85L0,128.866H2.749l-.011-.264s-.088-1.884-.124-2.852-.056-1.947-.056-2.934v-1.4h.5c.451.469.943,1.036,1.507,1.729s1.149,1.435,1.706,2.157,1.065,1.4,1.523,2.031,1.029,1.426,1.029,1.426l.074.106h3.385l-.4-.424s-.487-.517-.828-.918m-8.5-8.6c0-.792.016-1.611.043-2.437l.083-2.257c.192-.02.411-.038.659-.052.332-.023.756-.034,1.3-.034a5.814,5.814,0,0,1,1.149.122,2.991,2.991,0,0,1,1.045.426,2.372,2.372,0,0,1,.767.833,2.683,2.683,0,0,1,.3,1.336,2.92,2.92,0,0,1-.379,1.553,3.087,3.087,0,0,1-.975.984,3.956,3.956,0,0,1-1.313.524,8.547,8.547,0,0,1-2.22.131A2.967,2.967,0,0,1,2.552,120Z" transform="translate(0 -96.442)" fill="#fff"/><path d="M31.308,127.258c-.487.036-1.006.068-1.555.088s-1.106.036-1.677.036H26.723c0-.264-.018-.6-.023-1.02V121.2h.846l1.474.023c.519,0,1.036.027,1.553.054s1.354.113,1.354.113l.275.025v-1.929l-.273.023s-.677.054-1.049.079l-.837.047-.372.02c-.436.02-.914.041-1.442.056-.451.011-.97.02-1.532.02V117c0-.553,0-1.047.032-1.48q.029-.548.05-1.142.95,0,1.647.034c.526.023,1.011.047,1.453.079s.867.061,1.266.093,1.327.088,1.327.088l.269.018V112.8h-.264s-1.354.056-2.013.081c-1.325.045-2.688.045-4.023,0-.677-.023-1.354-.047-2.031-.081l-.275-.011.014.278q.07,1.449.124,2.9c.038.948.056,1.936.056,2.934v3.895c0,1-.018,1.981-.056,2.922s-.079,1.92-.124,2.886l-.014.275.275-.011c.661-.032,1.331-.045,2.049-.045h4.109c.677,0,2.017.045,2.017.045h.262v-1.828l-.293.05s-.783.133-1.257.167" transform="translate(0.368 -96.449)" fill="#fff"/><path d="M53.67,112.884c-1.9.045-3.931.045-5.829,0-.95-.023-2.92-.081-2.92-.081h-.26v1.97l.282-.034s.677-.081,1.065-.113.81-.056,1.239-.077.855-.036,1.282-.045h.986c.041,1.5.061,2.994.061,4.436v3.893c0,.952-.018,1.941-.056,2.934s-.124,2.852-.124,2.855l-.011.264h2.746l-.011-.264s-.088-1.887-.126-2.855-.056-1.965-.056-2.934V118.94c0-1.467.02-2.958.061-4.436h.986c.426,0,.853.023,1.282.045s.842.047,1.239.077,1.063.113,1.065.113l.282.034V112.8h-.26s-1.97.056-2.922.081" transform="translate(0.693 -96.441)" fill="#fff"/><path d="M80.324,126.927q-.463-1.043-1.04-2.367c-.384-.88-.794-1.837-1.232-2.859s-.876-2.06-1.311-3.1-.869-2.074-1.291-3.091-.815-1.965-1.176-2.841l-.065-.156h-.767l-.065.151q-1.765,4.051-3.507,7.968c-1.151,2.577-3.554,7.824-3.577,7.875l-.162.357h2.257l.054-.176c0-.016.494-1.58.878-2.627s.8-2.1,1.25-3.2q.616-.018,1.214-.027c.927-.014,1.9-.014,2.868,0q.659,0,1.3.027.271.677.575,1.422l.677,1.629c.226.535.415,1.045.6,1.534s.426,1.248.426,1.248l.056.174h2.992l-.185-.366s-.451-.9-.754-1.58m-4.9-5.594c-.3,0-.6.016-.9.02-.812.018-1.607.02-2.482,0-.291,0-.573-.016-.851-.02l2.087-4.867Z" transform="translate(1.026 -96.45)" fill="#fff"/><path d="M102,127.081c-.023,0-2.189.237-3.159.257q-1.354.034-2.825.034-.02-1.562-.041-3.5-.025-2.1-.023-4.944c0-1.006.018-1.988.054-2.934s.126-2.934.126-2.934V112.8H93.41l.011.264s.086,1.97.124,2.934.056,1.938.056,2.934v3.893c0,.984-.02,1.97-.056,2.934s-.079,1.916-.124,2.85l-.014.275h.275c.749-.032,1.433-.045,2.083-.045h4.168c.69,0,2.074.045,2.076.045h.28v-1.83Z" transform="translate(1.447 -96.451)" fill="#fff"/><path d="M109.2,98.84q0-.812-.023-1.634h-.431l-.451.016-.436.029a2.9,2.9,0,0,0-.375.041v-.5l1.018.027c.336,0,.677.011,1.018.011s.677,0,1.018-.011l1.018-.027v.5s-.226-.029-.377-.041l-.433-.029-.451-.016h-.431q-.025.819-.025,1.634v1.354c0,.343,0,.677.02,1.022s.043,1.022.043,1.022h-.774s.032-.677.043-1.022.02-.677.02-1.022Z" transform="translate(1.664 -96.691)" fill="#fff"/><path d="M112.938,96.694q.544,1.128,1.1,2.178t1.164,2.173c.052-.1.129-.246.226-.436s.226-.4.348-.643l.426-.783.451-.853q.226-.431.451-.853t.424-.785h.1q.086.756.165,1.462t.153,1.392q.075.677.153,1.354c.052.451.174,1.354.174,1.354h-.742s-.117-1.4-.174-2.06-.129-1.334-.214-2.013h-.016q-.546,1-1.07,1.979t-1,2.056h-.072q-.467-.986-.986-1.993t-1.043-2.031h-.016q-.054.49-.122,1.063t-.122,1.128c-.036.372-.07.722-.095,1.054s-.041.828-.041.828h-.553s.14-.9.214-1.37.142-.955.21-1.433.129-.95.19-1.417.111-.9.153-1.331Z" transform="translate(1.723 -96.692)" fill="#fff"/></g></g></svg>