<svg xmlns="http://www.w3.org/2000/svg" width="16.138" height="15.406" viewBox="0 0 16.138 15.406"><path d="M4.945,18.856A1.351,1.351,0,0,1,3.6,17.512V12.884a.675.675,0,0,1,.672-.672H16.416V5.7a.913.913,0,0,0-.247-.643.813.813,0,0,0-.623-.267,1.728,1.728,0,0,0-.376.04.637.637,0,0,0-.316.178l-.969.969a1.27,1.27,0,0,1,.01.752,2.673,2.673,0,0,1-.326.712L11.412,5.388a2.4,2.4,0,0,1,.752-.336,1.327,1.327,0,0,1,.811.059L14,4.1a2.025,2.025,0,0,1,.692-.485,2.151,2.151,0,0,1,.85-.168,2.107,2.107,0,0,1,1.572.663A2.2,2.2,0,0,1,17.761,5.7v6.507h1.305a.675.675,0,0,1,.672.672v4.628a1.279,1.279,0,0,1-.405.949,1.3,1.3,0,0,1-.939.4Zm0-1.345H18.394V13.556H4.945Zm13.449,0h0Z" transform="translate(-3.6 -3.45)" fill="#85553a"/></svg>