<svg xmlns="http://www.w3.org/2000/svg" width="16.059" height="11.332" viewBox="0 0 16.059 11.332"><path d="M4.372,21.182a.638.638,0,0,1-.485-.2A.665.665,0,0,1,3.7,20.51V16.02a2.4,2.4,0,0,1,.2-.969,1.7,1.7,0,0,1,.593-.732V12.085a2.162,2.162,0,0,1,.643-1.592A2.139,2.139,0,0,1,6.706,9.85h3.56a1.715,1.715,0,0,1,.811.2,2.255,2.255,0,0,1,.653.514,2.3,2.3,0,0,1,.643-.514,1.657,1.657,0,0,1,.8-.2h3.56a2.172,2.172,0,0,1,1.582.643,2.145,2.145,0,0,1,.653,1.592V14.32a1.7,1.7,0,0,1,.593.732,2.4,2.4,0,0,1,.2.969V20.51a.665.665,0,0,1-.188.475.692.692,0,0,1-.969,0,.665.665,0,0,1-.188-.475V19.6H5.045v.91a.665.665,0,0,1-.188.475A.638.638,0,0,1,4.372,21.182Zm7.951-7.14h5.3V12.085a.82.82,0,0,0-.257-.633.9.9,0,0,0-.633-.237H13.075a.674.674,0,0,0-.534.257.918.918,0,0,0-.218.613Zm-6.487,0h5.3V12.085a.918.918,0,0,0-.218-.613.674.674,0,0,0-.534-.257H6.706a.878.878,0,0,0-.87.87Zm-.791,4.193h13.37V15.961a.694.694,0,0,0-.218-.524.744.744,0,0,0-.534-.208H5.8a.744.744,0,0,0-.534.208.694.694,0,0,0-.218.524Zm13.37,0h0Z" transform="translate(-3.7 -9.85)" fill="#85553a"/></svg>