<svg xmlns="http://www.w3.org/2000/svg" width="12.384" height="9.944" viewBox="0 0 12.384 9.944"><path d="M4.737,17.644A1.069,1.069,0,0,1,3.7,16.607V8.737a.986.986,0,0,1,.313-.732A1.006,1.006,0,0,1,4.737,7.7h7.87a1.041,1.041,0,0,1,1.037,1.037v3.249L15.627,10a.256.256,0,0,1,.29-.061.228.228,0,0,1,.168.229v4.987a.237.237,0,0,1-.168.244.256.256,0,0,1-.29-.061l-1.983-1.983v3.249a1.006,1.006,0,0,1-.305.724.986.986,0,0,1-.732.313Zm0-1.037h7.87V8.737H4.737v7.87Zm0,0v0Z" transform="translate(-3.7 -7.7)" fill="#fff"/></svg>