<svg xmlns="http://www.w3.org/2000/svg" width="12.081" height="11.074" viewBox="0 0 12.081 11.074"><path d="M12.058,5.542,7.82,9.779a2.52,2.52,0,0,1-3.56,0L.023,5.542C.016,5.622,0,5.694,0,5.773v6.04A2.52,2.52,0,0,0,2.517,14.33H9.564a2.52,2.52,0,0,0,2.517-2.517V5.773C12.081,5.694,12.065,5.622,12.058,5.542Z" transform="translate(0 -3.256)" fill="#fff"/><path d="M7.478,6.812l4.6-4.6A2.51,2.51,0,0,0,9.933,1H2.886A2.51,2.51,0,0,0,.744,2.214l4.6,4.6a1.514,1.514,0,0,0,2.136,0Z" transform="translate(-0.369 -1)" fill="#fff"/></svg>