<svg xmlns="http://www.w3.org/2000/svg" width="11.295" height="8.793" viewBox="0 0 11.295 8.793"><circle cx="1.882" cy="1.882" r="1.882" transform="translate(3.766 2.515)" fill="#797979"/><path d="M10.946,5.837a6.231,6.231,0,0,0-5.3-3.182,6.231,6.231,0,0,0-5.3,3.182,2.309,2.309,0,0,0,0,2.428,6.231,6.231,0,0,0,5.3,3.182,6.231,6.231,0,0,0,5.3-3.182A2.309,2.309,0,0,0,10.946,5.837Zm-5.3,4.037A2.823,2.823,0,1,1,8.466,7.051,2.823,2.823,0,0,1,5.643,9.874Z" transform="translate(0.004 -2.655)" fill="#797979"/></svg>