<svg xmlns="http://www.w3.org/2000/svg" width="14.991" height="14.991" viewBox="0 0 14.991 14.991"><path d="M8.767,19.446V16.559a.675.675,0,0,1,.672-.672h2.888V13A.675.675,0,0,1,13,12.326h2.888V9.439a.675.675,0,0,1,.672-.672h2.888V6.472a.675.675,0,0,1,.672-.672A.638.638,0,0,1,20.6,6a.665.665,0,0,1,.188.475V9.439a.675.675,0,0,1-.672.672H17.231V13a.675.675,0,0,1-.672.672H13.671v2.887a.675.675,0,0,1-.672.672H10.111v2.887a.675.675,0,0,1-.672.672H6.472a.675.675,0,0,1-.672-.672.638.638,0,0,1,.2-.485.665.665,0,0,1,.475-.188Z" transform="translate(-5.8 -5.8)" fill="#85553a"/></svg>