<svg xmlns="http://www.w3.org/2000/svg" width="37.218" height="37.409" viewBox="0 0 37.218 37.409"><path d="M38.481,19.2A18.609,18.609,0,1,1,19.872.5,18.657,18.657,0,0,1,38.481,19.2Z" transform="translate(-1.263 -0.5)" fill="#fff"/><g transform="translate(0.165 0.185)"><path d="M20.871,8.442A9.8,9.8,0,0,1,22.75,9.82l-.208.209a25.789,25.789,0,0,0-3.133.043c-.11-.111-.333-.279-.126-.419l1.587-1.211ZM39.328,21.408a3.2,3.2,0,0,1-.126,1.358c-1.907.542-3.16-1.477-5.01-1.172L34.4,22.64c1.712.056,2.781,1.7,4.55,1.627-.251.5.112,1.824-1,1.3-1.155-.278-1.991-1.3-3.257-1.3-.153.281-.056.669-.083,1,1.336.21,2.3,1.338,3.632,1.547a2.205,2.205,0,0,1-.626,1.253c-1.086-.264-1.935-1.24-3.091-1.212l-.206.961c1.1.028,1.809,1,2.8,1.293.027.405-.335.768-.544,1.129-.877-.263-1.546-1.017-2.548-.961-.014-.377.21-.806.126-1.21-1.125.335-1.88-.711-2.714-1.338-.024-2.052-2.185-3.4-2.3-5.322a2.856,2.856,0,0,1,.211-1.232,6.583,6.583,0,0,0-.292-5.3,3,3,0,0,0-1.047-.958c.572,1.211,1.268,2.643.921,4.132-.04,1.15-.719,2.254-.727,3.363a2.311,2.311,0,0,0,.309,1.19c.905,1.63,2.534,3.174,1.922,5.219-.168.628-.67,1.114-.795,1.753,1.059.877,2.061,1.866,3.466,1.921.5-.32.223-1.738,1.253-1.084l1.5.752A2.412,2.412,0,0,1,35.11,32.2a3.784,3.784,0,0,0-1.839-.584,1.087,1.087,0,0,0-.374.792,3.354,3.354,0,0,1,1.378.587,3.466,3.466,0,0,1-.921,1l-1.167-.417c-.195.279-.6.572-.457.878a2.434,2.434,0,0,1,.749.46,7.766,7.766,0,0,1-1.8,1.293c-.541-1.768-2.323-3.008-2.17-5.053l-.083-.083c-.419.471-.279,1.224-.252,1.836.5,1.281,1.7,2.27,1.879,3.675-.209.361-.682.434-1.044.587.042-2.532-3.8-4.453-1.336-7.014.821-1.254,2.2-2.451,1.71-4.178-.5-1.667-2.272-2.7-2.256-4.569l0-.146c.4-1.949,1.629-4.023.626-6.1a3.53,3.53,0,0,0-1.753-2.13A5.966,5.966,0,0,1,27.052,18.8a7.531,7.531,0,0,0-.918,2.611h0a2.182,2.182,0,0,0,.377,1.4c.961,1.559,2.63,3.272,1.67,5.3-1.085,1.628-2.978,3.283-1.921,5.427.765,1.28,1.95,2.558,1.63,4.132l-1.253.417c.835-2.936-3.257-4.661-1.544-7.6,1.058-1.573,2.949-3.048,1.879-5.136-.64-1.293-1.963-2.059-1.921-3.675l.046-.271c.431-2.292,2.173-4.462.955-6.911a4.353,4.353,0,0,0-1.67-1.879l-.043.043a5.061,5.061,0,0,1,1.087,5.467,19.6,19.6,0,0,0-1.3,3.28,2.694,2.694,0,0,0,.3,1.69c.9,1.432,2.491,2.952,1.5,4.8-1.042,1.53-2.783,3.018-2.088,5.007.766,1.74,2.365,3.4,1.5,5.556l-1.293.292c1.03-2.1-.514-4.19-1.419-6.014-1.1-2.617,2.364-3.87,2.419-6.262-.013-1.544-1.655-2.421-2-3.841-.711-.6-1.447.238-2.3.083-.627.126-1.59-.863-1.965.209-.446,1.572-2.477,2.728-1.584,4.592.849,1.657,2.893,2.868,2.21,5.013-.611,2-2.631,3.91-1.378,6.22-.514-.167-1.475.152-1.461-.669-.793-2.8,2.589-4.427,1.544-7.223-.486-1.713-2.7-2.659-2.213-4.718.36-1.7,2.263-2.881,2-4.738a2.741,2.741,0,0,0-.115-.481c-.71-2-2.159-4.009-1.3-6.348a8.187,8.187,0,0,1,1.127-1.836,4.221,4.221,0,0,0-2.045,3.883c-.06,1.725,1.214,3.2,1.4,4.781a2.914,2.914,0,0,1-.478,1.981c-.9,1.227-2.086,2.52-1.544,4.135.515,1.629,2.547,2.616,2.422,4.51-.014,2.24-2.617,3.635-1.879,6.14l-1.3-.42c-.514-2.226,1.851-3.365,1.878-5.425.335-2.369-2.686-3.247-2.5-5.556-.013-1.754,1.531-2.865,2.213-4.341a2.826,2.826,0,0,0,.14-1.024c-.084-1.631-1.554-2.907-1.31-4.741a5.806,5.806,0,0,1,1.419-3.549c-1.21.486-1.71,1.879-2.044,3.049-.58,1.875.8,3.562.944,5.241a2.775,2.775,0,0,1-.818,2.233c-1,1.182-2.019,2.672-1.3,4.261.767,1.752,3.175,3.116,2.13,5.3-.57,1.378-1.935,2.421-1.878,4.049a3.552,3.552,0,0,1-1.044-.583c0-2.073,2.949-3.368,1.544-5.554-.124.431-.151,1.017-.249,1.5-.488,1.267-1.531,2.281-1.922,3.591a5.741,5.741,0,0,1-1.879-1.338l.752-.46a2.37,2.37,0,0,0-.5-.752c-.489-.069-.809.252-1.212.377a6.261,6.261,0,0,1-.961-.961c.25-.711,2.2-.123,1.212-1.293-.667-.417-1.337.179-1.922.457l-.792-1c.682-.417,1.362-1,2.211-.835.209.376.224.93.626,1.127,1.434-.028,2.45-1.112,3.549-1.962-.766-1.14-1.39-2.714-.709-4.092.545-1.381,1.966-2.545,2.03-4.072a2.715,2.715,0,0,0-.192-1.107c-.751-1.935-1.016-4.55.418-6.262-.78.209-1.239,1.181-1.5,1.919-.862,1.889.228,3.64.266,5.45a3.9,3.9,0,0,1-.1.981c-.738,1.489-1.934,2.8-2.128,4.509-.849.542-1.547,1.489-2.757,1.169a3.207,3.207,0,0,0,.166,1.169c-.96-.04-1.614.667-2.422,1-.43-.138-.542-.695-.709-1.084.946-.319,1.628-1.268,2.714-1.253.126-.35-.071-.67-.126-1-1.351-.6-3.492,2.964-3.672-.126,1.35-.084,2.212-1.336,3.549-1.461l.04-1c-1.517-.153-2.493,1.406-4.009,1.253L3,24.227c1.754.11,2.8-1.462,4.47-1.547a2.276,2.276,0,0,0,.292-1.127c-1.823-.238-3.075,1.783-5.01,1.169,0,0-.067-.841-.1-1.315h0c-.013-.185-.026-.315-.026-.315,1.726.67,3.242-.57,4.718-1.21.375-.112.961.082,1.129-.335-.015-.32.569-.695.083-.918-2.158-.293-3.592,2.31-5.805,1.127l-.166-.335A18.727,18.727,0,0,1,12.477,4.059,17.292,17.292,0,0,1,20.81,1.977a17.25,17.25,0,0,1,9.957,2.834,18.161,18.161,0,0,1,8.6,14.822c-2.283,1.725-3.815-1.625-6.14-.875a2.9,2.9,0,0,0,.46,1.044c2.061-.015,3.479,2.143,5.636,1.293l0,.314ZM13.1,13.661c-1.448-.947-3.283-.055-4.632.46a4.534,4.534,0,0,0-1.713-3.257,1.141,1.141,0,0,0-.378-.169.215.215,0,0,0-.209.126c.486,2.992-1.459,5.08-2.837,7.349a2.2,2.2,0,0,0,1.753.209c1.461-.584,2.853-1.6,4.593-1.253a12.9,12.9,0,0,1,2.088-2.422c.433-.375,1.028-.613,1.335-1.044Zm4.427,1.879c-.028.18.014.5.292.377.432-.6,1.2-.125,1.67-.083v-.168a1.5,1.5,0,0,0-1.335-.592,1.975,1.975,0,0,0-.375.051.325.325,0,0,0-.252.415Zm6.806-1.793a2.881,2.881,0,0,0-2.088-1.421,10.854,10.854,0,0,0-1.215-.086c-.076,0-.153,0-.229,0a3.42,3.42,0,0,0-2.9,1.255c-.1.265-.516.637-.126.875.877-.056,1.878-.166,2.462.587,0,.669.432,1.558-.292,1.879-.6-.555-1.309.236-1.962-.209-.307-.181-.5.03-.626.295a4.9,4.9,0,0,0,2.336,4.59,2.982,2.982,0,0,0,2.216.126c1.642-.765,2.322-2.517,2.628-4.132-.041-.307-.026-.906-.458-.921a2.335,2.335,0,0,1-1.713,0c-.305.1-.319.545-.666.629l-.212-.169c-.181-.764-.293-1.85.418-2.379a3.917,3.917,0,0,1,2.548-.209c.153-.264-.083-.472-.126-.709ZM23.5,15.12l-.163.006c-.292.195-1.142.055-.835.709.529-.419,1.267-.125,1.8.083.2-.1.153-.292.166-.46C24.291,15.141,23.885,15.112,23.5,15.12Zm6.06-5.885a8.844,8.844,0,0,0-2.839.795c-.082-.805.529-1.656.669-2.465-1.531.1-2.743,1.02-4.009,1.756q-.44-1.062-.878-2.13L24.17,5.6l.043-.209-2.256-.126a21.149,21.149,0,0,0-1-2.127c-.376.71-.628,1.461-1,2.17L17.7,5.437V5.6l1.71,1.544A5.62,5.62,0,0,1,18.491,9.4,19.864,19.864,0,0,0,15.4,7.733c-.264-.085-.641-.224-.878-.043a5.068,5.068,0,0,1,.752,2.425,12.983,12.983,0,0,1-1.253-.5,3.051,3.051,0,0,0-1.63-.249,9.177,9.177,0,0,1,1.753,3.8,15.5,15.5,0,0,1,9.357-1.5,22.9,22.9,0,0,1,4.424,1.418c.055-1.474.987-2.659,1.629-3.843Zm4.758,8.018c1.419.375,2.842,1.921,4.344.918C37.35,16,35.4,14,35.945,11.157a.327.327,0,0,0-.249-.418,3.665,3.665,0,0,0-1.842,2A12.431,12.431,0,0,1,33.44,14.2a5.938,5.938,0,0,0-3.34-.918c-.447.056-1.087.085-1.169.543a9.7,9.7,0,0,1,3.423,3.34,6.684,6.684,0,0,1,1.962.082ZM19.451,19.215l.04.252c.544.362.711.976,1.464.921.668.04,1.169-.586,1.5-1.087-.9-.125-2,.068-3.005-.086Zm.752-1.127c.027.111-.069.279.083.335.445-.1,1.252.237,1.5-.292a1,1,0,0,0-.755-.283A1.51,1.51,0,0,0,20.2,18.088Z" transform="translate(-2.582 -1.977)" fill="#007042"/><g transform="translate(16.87 15.629)"><path d="M137.416,126.891h3.052v1.254h-3.052Z" transform="translate(-137.416 -126.891)" fill="#fff" opacity="0.99"/><path d="M141.524,129.795c.394.093.492.233.8.272.331-.006.284-.073.861-.273a.1.1,0,0,0,.025-.161c-.359-.356-.607-.1-.832-.095-.3,0-.578-.255-.87.081-.05.068-.076.135.011.176Z" transform="translate(-140.961 -129.124)" fill="#007042"/></g></g><g transform="translate(31.378 34.906)"><path d="M252.7,281.642v-1.786h-.638v-.364h1.708v.364h-.636v1.786Z" transform="translate(-252.06 -279.493)" fill="#007042"/><path d="M267.916,281.641v-2.149h.649l.39,1.466.386-1.466h.651v2.149h-.4V279.95l-.427,1.692h-.418l-.425-1.692v1.692Z" transform="translate(-265.932 -279.492)" fill="#007042"/></g></svg>