<svg xmlns="http://www.w3.org/2000/svg" width="37" height="37" viewBox="0 0 37 37"><g transform="translate(0 0)"><path d="M11.081,3.2H3.655a.622.622,0,0,0-.62.671l1.9,23.94h6.145Zm25.474,0H29.13v24.61h6.145l1.9-23.94a.622.622,0,0,0-.62-.671" transform="translate(-1.605 -1.793)" fill="#f40027" fill-rule="evenodd"/><g transform="translate(0 0)"><path d="M35.268.465a1.28,1.28,0,0,1,1.277,1.379L33.884,35.385a1.28,1.28,0,0,1-1.277,1.178H4.394a1.28,1.28,0,0,1-1.277-1.178L.455,1.844A1.28,1.28,0,0,1,1.732.465Zm0-.451H1.732A1.731,1.731,0,0,0,.005,1.88L2.667,35.421a1.74,1.74,0,0,0,1.727,1.593H32.607a1.74,1.74,0,0,0,1.727-1.593L36.995,1.88A1.731,1.731,0,0,0,35.268.014Z" transform="translate(0 -0.014)" fill="#231f20" fill-rule="evenodd"/><path d="M30.424,32.009a.169.169,0,0,1-.168-.187c0-.017,0-.022,0-.022.027-.42-.116-.666-.588-.666l-1.459,0-.39,1.778H29.91a.168.168,0,0,1,.164.2l-.2.917a.168.168,0,0,1-.164.131H27.543s-.24,1.089-.249,1.136a.525.525,0,0,0,.321.613l.025.012a.159.159,0,0,1,.091.18l-.111.5a.167.167,0,0,1-.163.131H24.912a.167.167,0,0,1-.163-.2l1.108-5.021a.527.527,0,0,0-.333-.694l-.019-.007a.175.175,0,0,1-.112-.2l.1-.442a.183.183,0,0,1,.179-.144h5.656a.168.168,0,0,1,.164.2l-.366,1.649a.167.167,0,0,1-.163.131Zm-8.507-1.841a.182.182,0,0,1,.178-.143H24.86a.168.168,0,0,1,.164.205l-.094.425a.169.169,0,0,1-.149.131l-.021,0a1.846,1.846,0,0,0-.893.337l-2.3,1.912a0,0,0,0,0,0,0l1.769,2.395c.343.441.512.521.857.526a.179.179,0,0,1,.17.219l-.1.431a.166.166,0,0,1-.162.13H22.728c-1.526,0-1.947-.669-3.218-2.993h0l-.371,1.7c-.056.263.164.4.326.469l.021.008a.168.168,0,0,1,.1.193l-.11.5a.167.167,0,0,1-.163.131H16.121a.176.176,0,0,1-.171-.214l.094-.425a.184.184,0,0,1,.16-.143h.009c.293-.034.6-.219.789-1.124l.724-3.315a.523.523,0,0,0-.318-.684l-.03-.011a.181.181,0,0,1-.118-.211l.1-.443a.183.183,0,0,1,.179-.143h3.037a.166.166,0,0,1,.162.2l-.1.437a.182.182,0,0,1-.124.135l-.023.007a.625.625,0,0,0-.436.446l-.4,1.845h0l2.356-1.958a.182.182,0,0,0-.057-.335h0a.184.184,0,0,1-.126-.216Zm15.869,0a.2.2,0,0,1,.139.232l-.358,1.613a.168.168,0,0,1-.164.132h-.51a.168.168,0,0,1-.168-.177c0-.021,0-.029,0-.03.024-.526-.308-.919-1.059-.919a2.387,2.387,0,0,0-2.277,2.372,1.97,1.97,0,0,0,2.194,2.2,5.183,5.183,0,0,0,1.542-.23.168.168,0,0,1,.216.192l-.158.833a.2.2,0,0,1-.134.151,7.565,7.565,0,0,1-2.235.294c-2.815,0-3.958-1.619-3.781-3.27.157-1.47,1.13-3.636,4.965-3.636a6.6,6.6,0,0,1,1.785.245M32.946,13.236c-.152.807-.321,1.212-.43,1.71-.113.518-.335,1.275-.551,1.294-.218.066-.306-.187-.446,0-.083.111-.148.258-.222.353a.592.592,0,0,0-.095.276,6.115,6.115,0,0,1-.138,1.233,4.544,4.544,0,0,1-.925,2.037,3.085,3.085,0,0,1-1.456.994.408.408,0,0,1-.306,0c-.051-.023-.09-.085-.178-.171s-.122.044-.126.077a1.407,1.407,0,0,1-.053.594c-.213.377-.418.41-.532.88-.038.159-.012.4-.2.29a2.922,2.922,0,0,1-1.265-1.677,1.714,1.714,0,0,1,.126-.85,2.554,2.554,0,0,0,.128-.651c0-.269-.105-.5,0-.52.195-.043.283.461.374.408.157-.09.041-.622.041-.622a.466.466,0,0,0-.34-.216c-.159-.037-.209-.156-.039-.239a.751.751,0,0,1,.444-.118,3.422,3.422,0,0,0,1.934-.192.278.278,0,0,1,.215,0c.071.033.26.137.3.234s0,.476.059.761.263.026.313-.087a2.563,2.563,0,0,0,.113-.46.97.97,0,0,1,.176-.453,1.088,1.088,0,0,0,.317-.492,2.382,2.382,0,0,0,.08-.768c-.01-.4-.083-.446-.18-.532s-.211-.07-.456-.294a5.594,5.594,0,0,1-.556-.728,1.4,1.4,0,0,0-.721-.495c-.3-.072-.175.2-.159.281.013.055.083.3-.017.38a1.66,1.66,0,0,1-1.24.345c-.642-.168-.864-.525-.877-.87a1.593,1.593,0,0,1,.254-.761,2.4,2.4,0,0,0,.155-.7,3.433,3.433,0,0,1,.129-.622.261.261,0,0,1,.285-.153.308.308,0,0,1,.317.244c.112.516.294.647.355.689s.179-.042.224-.072.163-.148.126-.211a.809.809,0,0,1-.1-.215c-.021-.1.1-.086.127-.067a1.44,1.44,0,0,0,.739.23c.608.1.7-.123,1.114-.05a.309.309,0,0,1,.191.117c.028.054.079.177.13.2a1.918,1.918,0,0,0,.239.039c.088.015.247.005.22.168-.068.438-.574.559-.81.6a.461.461,0,0,0-.158.039.242.242,0,0,0,.006.271c.042.062.233.066.494.016a1.076,1.076,0,0,0,.742-.507,4.225,4.225,0,0,0,.365-1.234c.025-.14.081-.375.158-.423a1.819,1.819,0,0,1,.483-.147c.06.01.1.039.131.177s-.024.968-.025,1.093.067.132.1.115a.737.737,0,0,0,.355-.357c.037-.127-.07-.311-.016-.486.084-.273.166-.346.223-.34.347.033.418.185.335.627m-4.924,4.468a3.523,3.523,0,0,1-.683.145c-.182.01-.76.049-.857.045a.7.7,0,0,1-.41-.184c-.026-.024-.055-.108.052-.11a7.235,7.235,0,0,1,1.685-.012l.211.018c.03,0,.132.052,0,.1m-2.833-.468a1.133,1.133,0,0,1-.86-.278c-.039-.06.026-.107.085-.126a2.048,2.048,0,0,0,.463-.233c.1-.072.36-.236.494-.322.063-.041.423-.2.634-.051a1.614,1.614,0,0,0,1.153.335c.348-.021.34-.3.624-.392a1.185,1.185,0,0,0,.385-.19.265.265,0,0,1,.292.058c.142.132.194.237.358.423a1.283,1.283,0,0,0,.55.388.174.174,0,0,1,.132.1c0,.025-.031.1-.258.169a3.367,3.367,0,0,1-2-.091.756.756,0,0,0-.658.007,4.016,4.016,0,0,1-1.393.2M24.92,20.34c-.43.013-1.552-.664-2.042-2.588a.849.849,0,0,1,.378-.965,1.018,1.018,0,0,1,.213-.06.2.2,0,0,1,.228.217,5.664,5.664,0,0,0,.531,2.21c.1.134.186.139.23.021s.108-.252.13-.305c.016-.039.158-.255.2-.091a12.1,12.1,0,0,0,.387,1.254c.146.308-.095.3-.256.308M22.663,14.6c-.03-.13.027-.323.333-.128a1.638,1.638,0,0,0,.351.142.139.139,0,0,0,.186-.083c.028-.069.107-.208-.028-.275a.994.994,0,0,1-.66-.6.174.174,0,0,1,.077-.205.166.166,0,0,1,.184.047.612.612,0,0,0,.315.192.141.141,0,0,0,.15-.065.969.969,0,0,1,.907-.424c.226.028.435.078.512.084a1.494,1.494,0,0,0,.349-.017c.164-.031.41-.082.29.057-.1.113-.179.16-.094.282l.013.018a.308.308,0,0,1,0,.361l-.01.014a1.145,1.145,0,0,1-.891.372c-.236.015-.251.006-.256.142a.44.44,0,0,0,.006.116c.014.068.058.1.222.107a2.718,2.718,0,0,0,.337-.016c.054-.016.117.018.082.063-.005.007-.027.039-.031.044a.784.784,0,0,0-.165.374.217.217,0,0,1-.112.166h0a2.132,2.132,0,0,0-.623.3c-.24.2-.741.363-.957.118a3.206,3.206,0,0,1-.485-1.2m-.156-2.41c-.067.007-.125-.034-.2-.05s-.138.007-.173-.04-.026-.094.023-.112a.68.68,0,0,1,.133-.014c.1-.019.222-.134.313-.007a.143.143,0,0,1-.1.222m-.833,3.057c-.217-.144-.2-.333-.26-.519-.117-.394-.243-.869-.351-1.273-.066-.244-.083-.817.249-.817a.317.317,0,0,1,.345.21c.119.35-.1.289-.048.7.041.292.1.58.189,1.077.042.229.117.78-.084.646M21.037,9.63a3.174,3.174,0,0,1,.49-.8.676.676,0,0,0,0-.63,2.462,2.462,0,0,0-.19-.452.12.12,0,0,1,0-.094l.026-.017.265-.023a5.321,5.321,0,0,0,1.631-.477A1.853,1.853,0,0,1,23.572,7a2.086,2.086,0,0,1,.389-.1c.1-.016.217-.032.318-.043.15-.017.387.088.335.119a2.925,2.925,0,0,0-1.236.832,4.011,4.011,0,0,0-.5.788,1.322,1.322,0,0,1-.348.349.964.964,0,0,0-.3.409,6.635,6.635,0,0,0-.4,2.148c0,.138-.028.283-.159.333h0c-.107.043-.194.114-.212.037-.069-.26-.229-.822-.3-1.178-.021-.112-.046-.223-.073-.334a1.467,1.467,0,0,1-.049-.726m2.309,2.886c-.138.088-.273.189-.376.256-.126.083-.3,0-.251-.173a.528.528,0,0,1,.351-.343c.027-.006.128-.025.213-.035s.2-.019.258-.022c.145-.006.16.11.062.17-.065.04-.166.09-.257.148m.19.259a1.352,1.352,0,0,1,.178-.1c.089-.049.19-.11.292-.176a1.719,1.719,0,0,1,.684-.243.6.6,0,0,1,.4.156c.1.114.133.246,0,.223a1.142,1.142,0,0,0-.537,0,2.918,2.918,0,0,0-.627.24.853.853,0,0,1-.336.08c-.046,0-.178-.074-.044-.182m2.143,2.571a.384.384,0,0,1,.035.21c-.01.053-.2.122-.351-.109a.561.561,0,0,1,.01-.624c.146-.178.368-.049.336.017a.631.631,0,0,0-.031.505m4.641-2.257a.653.653,0,0,1-.331-.077,1.868,1.868,0,0,1-.363-.25.739.739,0,0,0-.482-.123,2.208,2.208,0,0,0-.387.062c-.106.026-.114-.071-.083-.107a1.052,1.052,0,0,1,.505-.258.66.66,0,0,1,.185,0,.781.781,0,0,1,.414.219,3.667,3.667,0,0,0,.48.393c.061.036.2.076.061.145m-.133-.537a1.111,1.111,0,0,1-.265-.249c-.032-.055-.024-.1.06-.1a1.242,1.242,0,0,1,.711.1.333.333,0,0,1,.052.365c-.055.127-.166.091-.229.082a2.021,2.021,0,0,1-.33-.2M31.7,12.1c-.046.049-.086.02-.18.043-.073.018-.122.059-.19.053a.143.143,0,0,1-.1-.221c.088-.129.212-.017.313,0a.676.676,0,0,1,.134.012c.049.017.056.063.025.112M23.015,6.28a1.192,1.192,0,0,1,.269-.256,4.731,4.731,0,0,1,1.227-.678c.1-.029.124-.044.188-.06.08-.021.148-.193-.019-.219a1.448,1.448,0,0,0-.34-.011c-.093,0-.138-.048-.071-.121a1.153,1.153,0,0,1,.411-.236,7.433,7.433,0,0,1,1.712-.326,4.061,4.061,0,0,1,.909-.017,5.6,5.6,0,0,1,.674.1,6.544,6.544,0,0,1,1.87.71,8.741,8.741,0,0,1,.908.621c.864.674,1.857,1.955,1.712,4.654a2.849,2.849,0,0,1-.076.572c-.022.078-.125.212-.18.035a9.2,9.2,0,0,0-.931-2.4c-.073-.112-.185-.1-.174.016,0,.049.028.564.016.664-.085.663.118.4.418,1.116a4.11,4.11,0,0,1,.242.936c.008.071.017.152.019.231,0,.1-.047.106-.047.106-.2,0-.562-.1-.754-.1-.219-.007-1.739-.022-2.31.023a1.951,1.951,0,0,0-1.207.514,1.012,1.012,0,0,1-.173.107.111.111,0,0,1-.069.01l-.136-.027a.948.948,0,0,0-.445,0c-.136.041-.2.076-.348-.01a2.244,2.244,0,0,0-1.653-.621c-.636-.005-1.47-.014-1.96.008-.159.007-.241.025-.282.024a.378.378,0,0,1,0-.05c-.008-.9.576-.7.643-.93a4.78,4.78,0,0,1,1.22-2.833,1.475,1.475,0,0,1,1.186-.427,2.986,2.986,0,0,1,1.2.246c.192.095.287.158.362.1s.277-.24.36-.3.052-.164-.027-.229a3.539,3.539,0,0,0-1.9-1.148,3.942,3.942,0,0,0-.668-.081,2.861,2.861,0,0,0-.522.03,6.146,6.146,0,0,0-1.328.427c-.019-.02.054-.139.076-.171m-.364,12.567a3.948,3.948,0,0,0,1.831,2.844c.647.483.944.7,1.029.761v0c.043.03-.229.023-.3.03a5.883,5.883,0,0,0-.867.035c-.3.055-.258.127-.288.343-.024.171,0,.443-.01.674s-.022.4.076.508.158.128.568.1c.39-.024,1.47-.025,1.6-.051.167-.034.14.026.044.233a32.982,32.982,0,0,1-1.539,3.52c-.117.216.212.114.494.25.509.245.492.314.626.058A20.2,20.2,0,0,0,26.9,25.62c.015-.07.045-.13.056-.025.008.075.019,2.257-.042,2.945a.127.127,0,0,0,.031.1.279.279,0,0,0,.139.064h0a1.809,1.809,0,0,1,.818-.1.368.368,0,0,0,.066-.014.147.147,0,0,0,.035-.042.441.441,0,0,0,.04-.119l0-.01a1.653,1.653,0,0,0,.029-.176c0-.035.006-.07.008-.105s0-.091.006-.136,0-.11,0-.164,0-.127,0-.19,0-.142,0-.212,0-.051-.005-.129-.005-.165-.009-.248-.008-.174-.013-.261-.011-.181-.017-.272-.014-.186-.022-.279-.017-.189-.027-.284-.021-.19-.033-.285-.025-.189-.039-.283-.028-.186-.045-.279-.033-.129-.051-.219-.037-.174-.058-.26-.042-.165-.065-.247q-.028-.1-.06-.194a.666.666,0,0,1-.019-.11c.007-.032.047-.009.091-.017l.032-.006a6.141,6.141,0,0,1,.87-.008c.108,0,.657.056.812.07s.34.051.332-.416c0-.124,0-.2,0-.315,0-.016,0-.032,0-.047s0-.058,0-.086,0-.033,0-.049,0-.032,0-.047,0-.029,0-.042,0-.05,0-.072c0-.007,0-.013,0-.02s0-.032,0-.047,0-.014,0-.021,0-.024,0-.034,0-.008,0-.01,0-.029,0-.046a.335.335,0,0,0-.227-.378,3.79,3.79,0,0,0-1.078-.043c-.055,0-.067,0-.05-.015v0a8.858,8.858,0,0,0,1.3-.954A4.741,4.741,0,0,0,31,20.034a6.927,6.927,0,0,0,.742-2.8c-.008-.259.034-.237.195-.233a.715.715,0,0,0,.332-.077c.331-.075.624-1.206.624-1.206s.5-1.717.618-2.419c.107-.625.082-.99-.3-1.175l-.064-.036a.072.072,0,0,1-.034-.082c.007-.027.015-.058.019-.081a6.292,6.292,0,0,0,.444-1.8.2.2,0,0,0-.122-.145.933.933,0,0,1-.228-.307.206.206,0,0,1-.01-.052,6.584,6.584,0,0,0-1.832-4.089l-.142-.129c-.111-.1-.252-.224-.415-.346a6.723,6.723,0,0,0-1.186-.738,6.244,6.244,0,0,0-1.1-.369c-.059-.016-.118-.031-.178-.045-.092-.022-.237-.048-.4-.071A5.867,5.867,0,0,0,26.7,3.772h0l-.132.006-.082,0-.092,0c-.095,0-.219.019-.35.038-.212.031-.438.073-.578.106-.156.038-.367.082-.631.158-.108.032-.217.065-.326.1l-.091.029c-.117.039-.235.079-.354.121-.086.03-.453.189-.532.226-.038.018-.091.04-.148.063-.258.082-.313.231-.322.313a.492.492,0,0,1-.041.153,1.756,1.756,0,0,1-1.6.885c-.091,0-.171.018-.143.106a1.585,1.585,0,0,0,.734.728c0,.036-.215.082-.259.094a4.11,4.11,0,0,1-.536-.006h0a.692.692,0,0,0-.657.512.17.17,0,0,0,.021.139,2.513,2.513,0,0,1,.3.5l0,.007a1.537,1.537,0,0,1,.058.184.44.44,0,0,1-.009.358c-.16.311-.562.408-.622.717a3.5,3.5,0,0,0,.232,1.453c.114.5.237,1.012.325,1.246a.02.02,0,0,1-.015.028c-.035.007-.1.02-.117.026-.232.092-.305.275-.332.633a18.6,18.6,0,0,0,.707,3.057A2.216,2.216,0,0,0,21.6,16.9a.664.664,0,0,0,.274.1c.211.037.3-.1.315.115,0,.044.018.163.02.231a4.064,4.064,0,0,0,.439,1.5" transform="translate(-8.437 -2.091)" fill="#231f20" fill-rule="evenodd"/></g></g></svg>