<svg xmlns="http://www.w3.org/2000/svg" xmlns:xlink="http://www.w3.org/1999/xlink" width="37" height="31.326" viewBox="0 0 37 31.326"><defs><clipPath id="a"><rect width="37" height="31.326" fill="none"/></clipPath></defs><g clip-path="url(#a)"><path d="M104.054,14.856,101.148,13a1.171,1.171,0,0,1-.421-1.769,1.245,1.245,0,0,1,1.64-.294l4.043,2.525,2.443-1.558-7.41-4.716s-1.5-.67-.758-1.9a1.236,1.236,0,0,1,1.682-.379l8.549,5.433s2.81-2.062-.716-4.717c0,0-5.476-3.681-8.254-5.051,0,0-3.167-1.994-4.338,1.39a56.147,56.147,0,0,0-.253,10.656,13.29,13.29,0,0,0,.379,2.485s1.047,2.737,4.254.924c0,0,1.89-1.043,2.065-1.182" transform="translate(-85.126 0)" fill="#0cb9f2"/><path d="M100.565,178.948l.049,5.265a3.539,3.539,0,0,0,3.949,3.852s3.586.211,3.7-3.949v-5.168h-1.9v5.216a1.915,1.915,0,0,1-1.9,2.094,1.846,1.846,0,0,1-1.95-2v-5.312Z" transform="translate(-88.085 -156.74)" fill="#262626"/><path d="M0,187.917v-8.97H2.094l2.291,3.8,2.341-3.8H8.82v8.97h-1.9v-5.9L4.387,185.87,1.9,182.116v5.8Z" transform="translate(0 -156.74)" fill="#262626"/><path d="M186.207,178.948l3.559,9.019h1.657l3.608-9.019h-2.094l-2.291,6.338-2.342-6.338h-2.1Z" transform="translate(-163.098 -156.74)" fill="#262626"/><rect width="1.948" height="8.97" transform="translate(35.052 22.208)" fill="#262626"/></g></svg>