<svg xmlns="http://www.w3.org/2000/svg" width="37" height="30.326" viewBox="0 0 37 30.326"><g transform="translate(0 0)"><path d="M226.1,7.518a.356.356,0,0,0-.023.216v3.291a3,3,0,0,1-.125.9,1.928,1.928,0,0,1-2.054,1.441,2,2,0,0,1-1.986-2.1c-.011-.125-.011-.261-.011-.386V2.411A1.868,1.868,0,0,1,223.069.493,2.137,2.137,0,0,1,225.452.9a7.6,7.6,0,0,1,.965,1.2c.942,1.283,1.941,2.531,2.826,3.859a1.963,1.963,0,0,0,.306.4V2.627a2.618,2.618,0,0,1,.329-1.373,1.906,1.906,0,0,1,2.009-.931,1.913,1.913,0,0,1,1.782,1.759,4.577,4.577,0,0,1,.045.681v8.49a1.906,1.906,0,0,1-1.124,1.929,2.15,2.15,0,0,1-2.429-.409,10.465,10.465,0,0,1-1.146-1.385,41.435,41.435,0,0,1-2.883-3.848c0-.011-.011-.011-.034-.023Z" transform="translate(-196.715 -0.299)" fill="#fe6d01"/><path d="M495.937,7.468v.238c0,1.192-.011,2.372-.023,3.564a2.128,2.128,0,0,1-.25.953,1.932,1.932,0,0,1-1.929,1.056,1.994,1.994,0,0,1-1.963-2.032c0-.068-.011-.136-.011-.2,0-2.974-.011-5.947,0-8.921A1.753,1.753,0,0,1,492.8.454a2.195,2.195,0,0,1,2.247.159,2.129,2.129,0,0,1,.545.511c1.146,1.544,2.327,3.053,3.416,4.642.125.182.238.363.386.6V2.485a2.375,2.375,0,0,1,.5-1.566A2.044,2.044,0,0,1,502,.283a1.815,1.815,0,0,1,1.43,1.362,3.531,3.531,0,0,1,.125,1.033V11.19a1.891,1.891,0,0,1-1.124,1.907,2.153,2.153,0,0,1-2.361-.34,2.1,2.1,0,0,1-.318-.318c-1.135-1.464-2.349-2.871-3.4-4.392-.136-.193-.261-.386-.386-.579.011-.011,0-.011-.023,0Z" transform="translate(-471.716 17.021)" fill="#fe6d01"/><path d="M4.018,2.561a13.481,13.481,0,0,1,2.406.1A5.892,5.892,0,0,1,11.3,6.511a6.2,6.2,0,0,1-1.09,6.469,6.041,6.041,0,0,1-3.893,2.032,32.954,32.954,0,0,1-4.233.091,1.279,1.279,0,0,1-.2-.034A2.225,2.225,0,0,1,0,12.844V4.831a2.24,2.24,0,0,1,2.236-2.27C2.792,2.55,3.36,2.561,4.018,2.561Zm.148,6.276V10.9c0,.1-.011.193.148.193a12.748,12.748,0,0,0,1.317-.034A2.139,2.139,0,0,0,7.57,8.849,2.147,2.147,0,0,0,5.652,6.613c-.431-.057-.863-.011-1.294-.034-.159-.011-.2.045-.2.2.011.681.011,1.373.011,2.054Z" transform="translate(0 -2.299)" fill="#fe6d01"/><path d="M342.61,3.95c.749-.965,1.521-1.884,2.247-2.837A2.337,2.337,0,0,1,346.48.1,2.185,2.185,0,0,1,348.8,2.338a2.614,2.614,0,0,1-.624,1.475c-.715.851-1.441,1.691-2.168,2.531-.1.125-.1.193,0,.306.783.863,1.544,1.748,2.315,2.61a2.294,2.294,0,0,1,.636,1.646,2.183,2.183,0,0,1-2.678,2.043,2.123,2.123,0,0,1-1.067-.738c-.817-1-1.657-1.986-2.452-3.008-.034-.045-.068-.091-.114-.148-.079.045-.045.113-.045.159,0,.6.011,1.192-.011,1.793a2.077,2.077,0,0,1-4.154,0c-.011-2.985-.011-5.981,0-8.966a2.077,2.077,0,0,1,4.154,0c.034.658.023,1.283.023,1.907Z" transform="translate(-335.788 17.214)" fill="#fe6d01"/><path d="M123.647,5.627c-.011.817.034,1.839-.023,2.849a5.1,5.1,0,0,1-4.506,4.812,6.282,6.282,0,0,1-3.235-.352,4.94,4.94,0,0,1-3.167-4.143c-.034-.25-.045-.511-.057-.772,0-1.873-.011-3.734,0-5.607a2.084,2.084,0,1,1,4.165.045V7.749a1.363,1.363,0,0,0,.749,1.339,1.324,1.324,0,0,0,1.9-1.158c.011-.125.011-.261.011-.386V2.392a2.077,2.077,0,0,1,4.109-.454,2.628,2.628,0,0,1,.045.522c.011.987.011,1.975.011,3.167Z" transform="translate(-99.869 -0.291)" fill="#fe6d01"/><path d="M442.661,6.721c0-1.487-.011-2.962,0-4.449A1.9,1.9,0,0,1,443.841.4a2.077,2.077,0,0,1,2.327.352,1.823,1.823,0,0,1,.636,1.407c.011,3.053.023,6.095,0,9.148a1.986,1.986,0,0,1-2.088,1.963,2.007,2.007,0,0,1-2.054-2.032c-.011-1.51,0-3.008,0-4.517Z" transform="translate(-428.189 17.041)" fill="#fe6d01"/><path d="M606.873,3.348a6.113,6.113,0,0,1,.114-1.51A1.827,1.827,0,0,1,609.166.374a1.832,1.832,0,0,1,1.589,2.054,8.589,8.589,0,0,1-.67,2.486,1.708,1.708,0,0,1-1.01,1.01,1.552,1.552,0,0,1-1.975-.942,4.671,4.671,0,0,1-.227-1.634Z" transform="translate(-573.765 16.908)" fill="#f40290"/></g></svg>