<svg xmlns="http://www.w3.org/2000/svg" width="12" height="12" viewBox="0 0 12 12"><path d="M83.6-870.4l2.4-1.83,2.4,1.83-.96-2.955,2.4-1.7H86.915L86-878.095l-.93,3.045H82.145l2.4,1.7ZM86-868a5.805,5.805,0,0,1-2.325-.472,6.085,6.085,0,0,1-1.912-1.29,6.086,6.086,0,0,1-1.29-1.912A5.805,5.805,0,0,1,80-874a5.842,5.842,0,0,1,.473-2.34,6,6,0,0,1,1.29-1.905,6.151,6.151,0,0,1,1.912-1.282A5.806,5.806,0,0,1,86-880a5.843,5.843,0,0,1,2.34.473,6.059,6.059,0,0,1,1.9,1.282,6.059,6.059,0,0,1,1.283,1.905A5.842,5.842,0,0,1,92-874a5.806,5.806,0,0,1-.472,2.325,6.15,6.15,0,0,1-1.283,1.912,6,6,0,0,1-1.9,1.29A5.842,5.842,0,0,1,86-868Z" transform="translate(-80 880)" fill="#fff" opacity="1"/></svg>