<svg xmlns="http://www.w3.org/2000/svg" width="10.135" height="12.414" viewBox="0 0 10.135 12.414"><path d="M160.523,177.693a1.173,1.173,0,1,0-.826-.344A1.127,1.127,0,0,0,160.523,177.693Zm0,4.855a17.628,17.628,0,0,0,2.934-3.293,5.011,5.011,0,0,0,.951-2.608,3.9,3.9,0,0,0-1.125-2.885,3.951,3.951,0,0,0-5.519,0,3.9,3.9,0,0,0-1.126,2.885,4.954,4.954,0,0,0,.966,2.607A18.727,18.727,0,0,0,160.523,182.548Zm0,1.322a.761.761,0,0,1-.251-.043.692.692,0,0,1-.22-.124,19.761,19.761,0,0,1-3.457-3.793,6.041,6.041,0,0,1-1.144-3.262,4.9,4.9,0,0,1,1.528-3.783,5.15,5.15,0,0,1,7.078,0,4.9,4.9,0,0,1,1.528,3.783,6.044,6.044,0,0,1-1.144,3.261,19.741,19.741,0,0,1-3.457,3.794.7.7,0,0,1-.215.124A.722.722,0,0,1,160.528,183.87ZM160.523,176.648Z" transform="translate(-155.456 -171.456)" fill="#666"/></svg>