<svg xmlns="http://www.w3.org/2000/svg" width="7.679" height="9.214" viewBox="0 0 7.679 9.214"><g transform="translate(-2)"><path d="M8.527,3.234V2.688a2.688,2.688,0,1,0-5.375,0v.547A1.92,1.92,0,0,0,2,4.991v2.3a1.922,1.922,0,0,0,1.92,1.92H7.759a1.922,1.922,0,0,0,1.92-1.92v-2.3A1.92,1.92,0,0,0,8.527,3.234ZM3.92,2.688a1.92,1.92,0,1,1,3.839,0v.384H3.92ZM8.911,7.295A1.152,1.152,0,0,1,7.759,8.446H3.92A1.152,1.152,0,0,1,2.768,7.295v-2.3A1.152,1.152,0,0,1,3.92,3.839H7.759A1.152,1.152,0,0,1,8.911,4.991Z" transform="translate(0 0)" fill="#fff"/><path d="M11.384,14a.384.384,0,0,0-.384.384v.768a.384.384,0,1,0,.768,0v-.768A.384.384,0,0,0,11.384,14Z" transform="translate(-5.545 -8.625)" fill="#fff"/></g></svg>