<svg xmlns="http://www.w3.org/2000/svg" width="12.592" height="11.469" viewBox="0 0 12.592 11.469"><path d="M2.553,15.119a.818.818,0,0,1-.6-.256.818.818,0,0,1-.256-.6V6.976a.826.826,0,0,1,.256-.59.808.808,0,0,1,.6-.263H4.642L5.679,4.886H9.659V6.592H11.35V8.3h1.72v5.969a.808.808,0,0,1-.263.6.826.826,0,0,1-.59.256Zm4.832-2.075A2.379,2.379,0,0,0,9.8,10.628,2.367,2.367,0,0,0,7.385,8.212a2.356,2.356,0,0,0-2.416,2.416,2.367,2.367,0,0,0,2.416,2.416Zm0-.853a1.508,1.508,0,0,1-1.123-.448A1.56,1.56,0,0,1,7.385,9.065,1.527,1.527,0,0,1,8.5,9.505a1.567,1.567,0,0,1-1.116,2.686ZM12.2,6.961V5.739H10.981V4.886H12.2V3.65h.853V4.886h1.236v.853H13.056V6.961Z" transform="translate(-1.7 -3.65)" fill="#fff"/></svg>