<svg xmlns="http://www.w3.org/2000/svg" width="26.998" height="26.998" viewBox="0 0 26.998 26.998"><path d="M-2862.5,19210a13.409,13.409,0,0,1-9.546-3.955,13.415,13.415,0,0,1-3.953-9.545,13.407,13.407,0,0,1,3.953-9.543,13.4,13.4,0,0,1,9.546-3.955,13.4,13.4,0,0,1,9.544,3.955,13.4,13.4,0,0,1,3.955,9.543,13.411,13.411,0,0,1-3.955,9.545A13.408,13.408,0,0,1-2862.5,19210Zm-2.2-17.7a.3.3,0,0,0-.3.3v7.8a.3.3,0,0,0,.3.3.3.3,0,0,0,.179-.061l5.2-3.9a.291.291,0,0,0,.123-.236.292.292,0,0,0-.123-.24l-5.2-3.9A.288.288,0,0,0-2864.7,19192.3Z" transform="translate(2875.998 -19183)" fill="#fff"/></svg>