<svg xmlns="http://www.w3.org/2000/svg" width="14.114" height="15.682" viewBox="0 0 14.114 15.682"><path d="M7.176,19.682A1.206,1.206,0,0,1,6,18.506V6.352A1.206,1.206,0,0,1,7.176,5.176H8.45V4H9.725V5.176h6.665V4h1.274V5.176h1.274a1.206,1.206,0,0,1,1.176,1.176V18.506a1.206,1.206,0,0,1-1.176,1.176Zm0-1.176H18.938V10.077H7.176Zm0-9.605H18.938V6.352H7.176Zm0,0v0Zm5.881,4.509a.77.77,0,1,1,.559-.225A.759.759,0,0,1,13.057,13.409Zm-3.136,0a.77.77,0,1,1,.559-.225A.759.759,0,0,1,9.921,13.409Zm6.273,0a.77.77,0,1,1,.559-.225A.759.759,0,0,1,16.193,13.409Zm-3.136,3.136a.77.77,0,1,1,.559-.225A.759.759,0,0,1,13.057,16.546Zm-3.136,0a.77.77,0,1,1,.559-.225A.759.759,0,0,1,9.921,16.546Zm6.273,0a.77.77,0,1,1,.559-.225A.759.759,0,0,1,16.193,16.546Z" transform="translate(-6 -4)" fill="#836ddd"/></svg>