<svg xmlns="http://www.w3.org/2000/svg" width="11.129" height="13.912" viewBox="0 0 11.129 13.912"><path d="M163.287-869.045h4.556a.5.5,0,0,0,.372-.151.509.509,0,0,0,.15-.374.5.5,0,0,0-.15-.371.509.509,0,0,0-.372-.148h-4.556a.5.5,0,0,0-.372.151.509.509,0,0,0-.15.374.5.5,0,0,0,.15.371A.509.509,0,0,0,163.287-869.045Zm0-2.956h4.556a.5.5,0,0,0,.372-.151.509.509,0,0,0,.15-.374.5.5,0,0,0-.15-.371.509.509,0,0,0-.372-.148h-4.556a.5.5,0,0,0-.372.151.509.509,0,0,0-.15.374.5.5,0,0,0,.15.371A.509.509,0,0,0,163.287-872Zm-2.243,5.912a1,1,0,0,1-.73-.313,1,1,0,0,1-.313-.73v-11.825a1,1,0,0,1,.313-.73,1,1,0,0,1,.73-.313h5.843a1.006,1.006,0,0,1,.413.087,1.1,1.1,0,0,1,.335.226l3.182,3.182a1.1,1.1,0,0,1,.226.335,1.007,1.007,0,0,1,.087.413v8.625a1,1,0,0,1-.313.73,1,1,0,0,1-.73.313Zm5.756-10.156v-2.713h-5.756v11.825h9.043v-8.59h-2.765a.5.5,0,0,1-.372-.15A.5.5,0,0,1,166.8-876.244Zm-5.756-2.713v0Z" transform="translate(-160 880)" fill="#e5903b"/></svg>