<svg xmlns="http://www.w3.org/2000/svg" width="15.76" height="14.114" viewBox="0 0 15.76 14.114"><path d="M18.836,12.293v6.645a1.206,1.206,0,0,1-1.176,1.176H5.878A1.206,1.206,0,0,1,4.7,18.938V12.293a2.22,2.22,0,0,1-.725-1.157,2.453,2.453,0,0,1,.039-1.372l.843-2.646a1.54,1.54,0,0,1,.549-.823A1.463,1.463,0,0,1,6.31,6H17.15a1.574,1.574,0,0,1,.961.3,1.548,1.548,0,0,1,.568.814l.863,2.646a2.4,2.4,0,0,1,.029,1.372A2.279,2.279,0,0,1,18.836,12.293Zm-5.293-.608a1.342,1.342,0,0,0,.961-.372.981.981,0,0,0,.314-.9l-.49-3.234h-1.96v3.234a1.315,1.315,0,0,0,.333.892A1.07,1.07,0,0,0,13.543,11.685Zm-3.666,0a1.284,1.284,0,0,0,.931-.372,1.213,1.213,0,0,0,.382-.9V7.176H9.23l-.49,3.234a1.025,1.025,0,0,0,.274.892,1.129,1.129,0,0,0,.863.382Zm-3.568,0a1.146,1.146,0,0,0,.814-.323,1.277,1.277,0,0,0,.4-.794l.51-3.391H6.074l-.9,2.862a1.235,1.235,0,0,0,.157,1.127A1.121,1.121,0,0,0,6.31,11.685Zm10.919,0a1.151,1.151,0,0,0,.99-.51,1.23,1.23,0,0,0,.167-1.137l-.9-2.862h-1.96l.51,3.391a1.277,1.277,0,0,0,.4.794A1.122,1.122,0,0,0,17.228,11.685ZM5.878,18.938H17.66v-6.1q.02.02-.127.02h-.3a2.176,2.176,0,0,1-.931-.206,3.119,3.119,0,0,1-.872-.637,2.213,2.213,0,0,1-.784.617,2.373,2.373,0,0,1-1.039.225,2.745,2.745,0,0,1-1.01-.167,2.424,2.424,0,0,1-.814-.559,1.891,1.891,0,0,1-.745.539,2.649,2.649,0,0,1-1.019.186,2.561,2.561,0,0,1-1.078-.216,2.2,2.2,0,0,1-.8-.627,4.119,4.119,0,0,1-.921.627,2.074,2.074,0,0,1-.9.216H6.045a.446.446,0,0,1-.167-.02Zm11.781,0h0Z" transform="translate(-3.897 -6)" fill="#3dbc17"/></svg>