<svg xmlns="http://www.w3.org/2000/svg" width="14.221" height="14.222" viewBox="0 0 14.221 14.222"><path d="M13.668,9.881,12.279,8.813a1.84,1.84,0,0,0-2.541,0l-.872.693A7.586,7.586,0,0,1,4.752,5.388l.687-.864a1.84,1.84,0,0,0,0-2.542L4.376.59A.587.587,0,0,0,4.325.531,1.829,1.829,0,0,0,1.758.507L1.075,1.1C-3.507,5.973,8.316,17.806,13.183,13.149l.54-.623a1.84,1.84,0,0,0,0-2.6A.668.668,0,0,0,13.668,9.881Zm-.81,1.84-.541.623C8.794,15.677-1.468,6,1.884,1.97l.683-.594a.653.653,0,0,1,.9-.023l1.06,1.379a.534.534,0,0,0,.051.059.653.653,0,0,1,0,.919.5.5,0,0,0-.047.049L3.6,4.923a.594.594,0,0,0-.086.594,8.909,8.909,0,0,0,5.236,5.23.594.594,0,0,0,.581-.09L10.5,9.731a.59.59,0,0,0,.05-.045.67.67,0,0,1,.978.051L12.906,10.8a.665.665,0,0,1-.05.924Z" transform="translate(-0.04 0.008)" fill="#f7cd24"/></svg>