<svg xmlns="http://www.w3.org/2000/svg" width="16.093" height="12.875" viewBox="0 0 16.093 12.875"><path d="M96.093-798.793v10.461a1.157,1.157,0,0,1-.362.845,1.158,1.158,0,0,1-.845.362H81.207a1.158,1.158,0,0,1-.845-.362,1.157,1.157,0,0,1-.362-.845v-10.461a1.158,1.158,0,0,1,.362-.845,1.158,1.158,0,0,1,.845-.362H94.886a1.158,1.158,0,0,1,.845.362A1.158,1.158,0,0,1,96.093-798.793ZM81.207-796.6H94.886v-2.193H81.207Zm0,2.595v5.673H94.886v-5.673Zm0,5.673v0Z" transform="translate(-80 800)" fill="#6da9dd"/></svg>