<svg xmlns="http://www.w3.org/2000/svg" width="16" height="12.859" viewBox="0 0 16 12.859"><path d="M88.581-789.461a1.723,1.723,0,0,0,1.338.433,1.475,1.475,0,0,0,1.278-.654l3.6-5.635a.285.285,0,0,0-.03-.392.285.285,0,0,0-.392-.03L88.8-792.1a1.525,1.525,0,0,0-.644,1.288A1.71,1.71,0,0,0,88.581-789.461Zm-4.327,3.32a1.457,1.457,0,0,1-.674-.171,1.1,1.1,0,0,1-.493-.493,9.6,9.6,0,0,1-.8-1.962A7.769,7.769,0,0,1,82-790.89a7.91,7.91,0,0,1,.634-3.149,8.22,8.22,0,0,1,1.721-2.576,8.217,8.217,0,0,1,2.546-1.741A7.614,7.614,0,0,1,90.009-799a8.274,8.274,0,0,1,1.892.231,7.446,7.446,0,0,1,1.952.775.747.747,0,0,1,.443.533.54.54,0,0,1-.2.513.8.8,0,0,1-.372.151.61.61,0,0,1-.392-.07,7.5,7.5,0,0,0-1.751-.694,6.473,6.473,0,0,0-1.57-.231,6.521,6.521,0,0,0-4.81,2.012,6.691,6.691,0,0,0-1.992,4.89,6.96,6.96,0,0,0,.252,1.831,6.92,6.92,0,0,0,.714,1.711H95.825a6.467,6.467,0,0,0,.7-1.69,7.218,7.218,0,0,0,.262-1.892,7.222,7.222,0,0,0-.191-1.59,5.39,5.39,0,0,0-.654-1.61.572.572,0,0,1-.08-.412.606.606,0,0,1,.2-.352.564.564,0,0,1,.483-.131.575.575,0,0,1,.4.292,9.093,9.093,0,0,1,.765,1.841A7.252,7.252,0,0,1,98-791.051a8.6,8.6,0,0,1-.252,2.274,7.321,7.321,0,0,1-.815,1.972,1.1,1.1,0,0,1-.513.564,1.956,1.956,0,0,1-.674.1ZM90.009-792.58Z" transform="translate(-82 799)" fill="#5ac2d0"/></svg>