<svg xmlns="http://www.w3.org/2000/svg" width="15.76" height="12.608" viewBox="0 0 15.76 12.608"><path d="M5.182,20.608A1.145,1.145,0,0,1,4,19.426V16.412a2.117,2.117,0,0,0,1.212-.739A2.076,2.076,0,0,0,5.694,14.3a2.115,2.115,0,0,0-.483-1.379A2,2,0,0,0,4,12.2V9.182A1.145,1.145,0,0,1,5.182,8h13.4A1.145,1.145,0,0,1,19.76,9.182V12.2a2,2,0,0,0-1.212.729,2.115,2.115,0,0,0-.483,1.379,2.076,2.076,0,0,0,.483,1.369,2.117,2.117,0,0,0,1.212.739v3.014a1.145,1.145,0,0,1-1.182,1.182Zm0-1.182h13.4V17.279A4.207,4.207,0,0,1,17.356,16a3.272,3.272,0,0,1,0-3.388,4.207,4.207,0,0,1,1.221-1.28V9.182H5.182v2.147a4.018,4.018,0,0,1,1.231,1.28,3.331,3.331,0,0,1,0,3.388,4.018,4.018,0,0,1-1.231,1.28Zm6.7-1.241a.606.606,0,1,0-.414-.177A.567.567,0,0,0,11.88,18.185Zm0-3.29a.606.606,0,1,0-.414-.177A.567.567,0,0,0,11.88,14.895Zm0-3.29a.606.606,0,1,0-.414-.177A.567.567,0,0,0,11.88,11.605ZM11.88,14.3Z" transform="translate(-4 -8)" fill="#db6c6c"/></svg>