<svg xmlns="http://www.w3.org/2000/svg" width="16.74" height="16" viewBox="0 0 16.74 16"><path d="M54.5-876.251l-1.2-2.059-2.408-.486a.568.568,0,0,1-.359-.233.507.507,0,0,1-.107-.408l.272-2.33-1.534-1.787a.527.527,0,0,1-.155-.388.527.527,0,0,1,.155-.388L50.69-886.1l-.272-2.33a.507.507,0,0,1,.107-.408.568.568,0,0,1,.359-.233l2.408-.486,1.2-2.078a.622.622,0,0,1,.33-.272.546.546,0,0,1,.427.019l2.117.99,2.117-.99a.578.578,0,0,1,.427-.029.578.578,0,0,1,.33.262l1.223,2.1,2.389.486a.568.568,0,0,1,.359.233.507.507,0,0,1,.107.408l-.272,2.33,1.534,1.767a.527.527,0,0,1,.155.388.527.527,0,0,1-.155.388l-1.534,1.787.272,2.33a.507.507,0,0,1-.107.408.568.568,0,0,1-.359.233l-2.389.486-1.223,2.078a.578.578,0,0,1-.33.262.577.577,0,0,1-.427-.029l-2.117-.99-2.117.99a.546.546,0,0,1-.427.019A.622.622,0,0,1,54.5-876.251Zm.8-1.068,2.078-.874,2.136.874,1.3-1.942,2.272-.583-.233-2.311,1.573-1.787-1.573-1.826.233-2.311-2.272-.544-1.34-1.942-2.1.874-2.136-.874-1.3,1.942-2.272.544.233,2.311-1.573,1.826,1.573,1.787-.233,2.35,2.272.544ZM57.37-883.941Zm-.835.913L55.117-884.5a.553.553,0,0,0-.427-.194.648.648,0,0,0-.447.175.614.614,0,0,0-.194.447.614.614,0,0,0,.194.447l1.884,1.864a.559.559,0,0,0,.408.175.559.559,0,0,0,.408-.175L60.5-885.3a.581.581,0,0,0,.175-.427.553.553,0,0,0-.194-.427.571.571,0,0,0-.418-.146.573.573,0,0,0-.4.165Z" transform="translate(-49 891.941)" fill="#9a3500"/></svg>