<svg xmlns="http://www.w3.org/2000/svg" width="20.316" height="20.316" viewBox="0 0 20.316 20.316"><path d="M16.93,3.386H12.7A3.386,3.386,0,0,0,9.311,0H3.386A3.386,3.386,0,0,0,0,3.386V19.469a.846.846,0,1,0,1.693,0V11H8.465a3.386,3.386,0,0,0,3.386,3.386H16.93A3.386,3.386,0,0,0,20.316,11V6.772A3.386,3.386,0,0,0,16.93,3.386ZM1.693,9.311V3.386A1.693,1.693,0,0,1,3.386,1.693H9.311A1.693,1.693,0,0,1,11,3.386V7.618A1.693,1.693,0,0,1,9.311,9.311ZM18.623,11A1.693,1.693,0,0,1,16.93,12.7H11.851A1.693,1.693,0,0,1,10.158,11v-.12A3.386,3.386,0,0,0,12.7,7.618V5.079H16.93a1.693,1.693,0,0,1,1.693,1.693Z" fill="#85553a"/></svg>