<svg xmlns="http://www.w3.org/2000/svg" xmlns:xlink="http://www.w3.org/1999/xlink" width="207" height="200" viewBox="0 0 207 200"><defs><clipPath id="a"><rect width="207" height="200" rx="1" transform="translate(-4713.454 -5483)" fill="#85553a"/></clipPath></defs><g transform="translate(4713.454 5483)" clip-path="url(#a)"><path d="M244.92,244.951H244.9l0-44.563.019,44.558ZM.011,227.432H0L0,208c24.066-3.472,46.685-13.155,61.422-20.668A229.616,229.616,0,0,0,87.9,171.707c16.847-10.957,25.3-20.283,25.3-22.425a305.418,305.418,0,0,0-6.166-31.546c-.168-.837-16.85-83.779-18.028-91.686a24.262,24.262,0,0,1,3.566-15.173c.386.018,9.328.57,18.985,8.036a55.089,55.089,0,0,1,14.722,18.024c4.963,9.346,8.394,20.937,10.2,34.453,1.732,12.951,3.173,23.961,4.33,32.807,4.272,32.653,5.561,42.507,8.151,49.052,3.034,7.673,5.849,13.543,12.068,13.543a11.707,11.707,0,0,0,2.461-.28,15.509,15.509,0,0,0,9.313-6.153,32.509,32.509,0,0,0-8.176-14.751l1.2-12.928a38.737,38.737,0,0,1,10.659,23.976c0,13.774-4.719,20.334-15.78,21.936a9.949,9.949,0,0,1-1.406.1c-9.236,0-14.458-13.527-16.748-21.591a101.59,101.59,0,0,0-14.513,32.549,19.425,19.425,0,0,0-.268,5.275,13.351,13.351,0,0,0,13.351,13.351c.356,0,.668-.011.953-.033,11.633,0,31.469-12.716,58.223-30.681a128.643,128.643,0,0,1,44.6-22.874V166.11a90.485,90.485,0,0,0-29.423,13.564v-.043c-6.238,4.04-12.635,8.766-19.408,13.77-17.969,13.276-36.548,27-51.774,27-.412.025-.831.037-1.245.037a20.638,20.638,0,0,1-20.412-17.7,24.875,24.875,0,0,1-.268-3.729c.619-19.194,12.755-35.092,19.935-42.861-.573-2.122-1.074-4.306-1.488-6.487-2.228-11.733-11.063-77.2-11.152-77.855a83.293,83.293,0,0,0-6.056-20.49,57.387,57.387,0,0,0-10.09-15.767,36.776,36.776,0,0,0-17.039-10.7c.369,2.318,4.62,23.377,9.121,45.672,4.214,20.876,8.572,42.463,9.839,49.158a130.366,130.366,0,0,1,1.208,30.334c-1.436,9.547-9.635,19.6-24.37,29.865a290.542,290.542,0,0,1-29.8,18.125C46.4,206.562,22.512,217.29.008,219.842Zm244.9-72.746H244.9V0Zm-75.274-36.662,0,0-13.251-7.743,4.87-8.331-11.658-6.855,6.245-10.65,13.246,7.77-4.861,8.339,11.683,6.842L169.64,118.02ZM159.706,69.4l0-.009a43.463,43.463,0,0,0-7.609-14.111,1.553,1.553,0,0,1-1.739.485l-.184-.071c-.726-.306-3.309-1.467-3.6-1.6-.939-.426-1.085-.849-.717-2.059a28.106,28.106,0,0,1,1.129-2.955c.383-.887.851-1.282,1.517-1.282a2.51,2.51,0,0,1,.836.166,12.517,12.517,0,0,1,3.315,1.768,18.725,18.725,0,0,1,6.278,9.054c.31.89.939,2.588,1.062,2.92l.3.721c0-.014.048-.353.128-.865.319-2.045,1.066-6.835,1.536-9.255a36.79,36.79,0,0,1,1.333-4.443,5.635,5.635,0,0,1,.681-1.308c.969-1.482,2.086-2.266,3.232-2.266a2.67,2.67,0,0,1,.718.1c1.768.491,3.969,2.751,3.8,4.389a21.257,21.257,0,0,1-1.484,4.314c-.258-.336-.482-.632-.685-.9-.419-.555-.745-.985-1.092-1.4-.86-1.018-1.6-1.513-2.277-1.513-.747,0-1.408.612-2.021,1.872a25.649,25.649,0,0,0-1.776,6.027c-.379,1.913-.681,3.872-.973,5.766-.213,1.385-.434,2.815-.682,4.216a6.164,6.164,0,0,1-1.019,2.229Z" transform="translate(-4735.331 -5488.635)" fill="#85553a"/></g></svg>