<svg xmlns="http://www.w3.org/2000/svg" width="24.097" height="22.405" viewBox="0 0 24.097 22.405"><path d="M11.6.786a.981.981,0,0,1,1.6,0l3.716,5.285a.981.981,0,0,0,.534.379l6.282,1.784a.981.981,0,0,1,.5,1.554l-3.977,5a.981.981,0,0,0-.213.641l.193,6.337a.981.981,0,0,1-1.3.956l-6.214-2.158a.981.981,0,0,0-.644,0L5.872,22.719a.981.981,0,0,1-1.3-.956l.193-6.337a.981.981,0,0,0-.213-.641l-3.977-5a.981.981,0,0,1,.5-1.554L7.354,6.45a.981.981,0,0,0,.534-.379Z" transform="translate(-0.358 -0.369)" fill="#121212"/></svg>