<svg xmlns="http://www.w3.org/2000/svg" width="17.013" height="15.312" viewBox="0 0 17.013 15.312"><path d="M11.656,21.312V20.036h7.231V13.571a5.538,5.538,0,0,0-.532-2.371A6.819,6.819,0,0,0,16.93,9.19,7.1,7.1,0,0,0,14.889,7.8a5.7,5.7,0,0,0-4.764,0A7.1,7.1,0,0,0,8.083,9.19,6.819,6.819,0,0,0,6.658,11.2a5.538,5.538,0,0,0-.532,2.371V18.76H5.7a1.706,1.706,0,0,1-1.7-1.7v-1.7a1.584,1.584,0,0,1,.234-.861,1.868,1.868,0,0,1,.617-.606l.064-1.127A7.716,7.716,0,0,1,5.8,9.956,7.472,7.472,0,0,1,7.52,7.829a7.741,7.741,0,0,1,2.318-1.35,7.742,7.742,0,0,1,5.359,0A7.488,7.488,0,0,1,17.5,7.84a7.767,7.767,0,0,1,1.712,2.127,7.6,7.6,0,0,1,.883,2.775l.064,1.106a1.547,1.547,0,0,1,.851,1.382v1.957a1.493,1.493,0,0,1-.234.829,1.546,1.546,0,0,1-.617.553v1.467a1.271,1.271,0,0,1-1.276,1.276Zm-1.7-6.167a.612.612,0,0,1-.447-.191.636.636,0,0,1-.191-.468.578.578,0,0,1,.191-.436.656.656,0,0,1,.468-.181.594.594,0,0,1,.436.181.62.62,0,0,1,.181.457.63.63,0,0,1-.181.447A.6.6,0,0,1,9.955,15.145Zm5.1,0a.612.612,0,0,1-.447-.191.636.636,0,0,1-.191-.468.578.578,0,0,1,.191-.436.656.656,0,0,1,.468-.181.594.594,0,0,1,.436.181.62.62,0,0,1,.181.457.63.63,0,0,1-.181.447A.6.6,0,0,1,15.059,15.145ZM7.424,14.039a4.878,4.878,0,0,1,.351-2.276,5.264,5.264,0,0,1,1.17-1.733,5.286,5.286,0,0,1,3.6-1.478A4.605,4.605,0,0,1,15.8,9.775a5.177,5.177,0,0,1,1.616,3.052,6.15,6.15,0,0,1-3.52-1.074A7.077,7.077,0,0,1,11.55,9.02a6.792,6.792,0,0,1-1.436,3.052A6.618,6.618,0,0,1,7.424,14.039Z" transform="translate(-4 -6)" fill="#121212"/></svg>