<svg xmlns="http://www.w3.org/2000/svg" width="12" height="9.6" viewBox="0 0 12 9.6"><path d="M86-792.245a.432.432,0,0,0,.315-.135.432.432,0,0,0,.135-.315.432.432,0,0,0-.135-.315.432.432,0,0,0-.315-.135.432.432,0,0,0-.315.135.432.432,0,0,0-.135.315.432.432,0,0,0,.135.315A.432.432,0,0,0,86-792.245Zm0-2.505a.432.432,0,0,0,.315-.135.432.432,0,0,0,.135-.315.432.432,0,0,0-.135-.315A.432.432,0,0,0,86-795.65a.432.432,0,0,0-.315.135.432.432,0,0,0-.135.315.432.432,0,0,0,.135.315A.432.432,0,0,0,86-794.75Zm0-2.505a.432.432,0,0,0,.315-.135.432.432,0,0,0,.135-.315.432.432,0,0,0-.135-.315.432.432,0,0,0-.315-.135.432.432,0,0,0-.315.135.432.432,0,0,0-.135.315.432.432,0,0,0,.135.315A.432.432,0,0,0,86-797.255ZM80-790.4v-3.2a1.612,1.612,0,0,0,.923-.562,1.581,1.581,0,0,0,.367-1.043,1.61,1.61,0,0,0-.367-1.05A1.526,1.526,0,0,0,80-796.8V-800H92v3.2a1.526,1.526,0,0,0-.923.555,1.61,1.61,0,0,0-.367,1.05,1.581,1.581,0,0,0,.367,1.043,1.612,1.612,0,0,0,.923.563v3.2Z" transform="translate(-80 800)" fill="#fff" opacity="1"/></svg>