<svg xmlns="http://www.w3.org/2000/svg" width="16.238" height="11.791" viewBox="0 0 16.238 11.791"><path d="M5.4,19.791a2.174,2.174,0,0,1-2.177-2.177H2V9.107a1.062,1.062,0,0,1,.332-.775A1.062,1.062,0,0,1,3.107,8H13.791v3.082h1.937l2.51,3.34v3.192h-1.31a2.179,2.179,0,0,1-3.718,1.541,2.1,2.1,0,0,1-.637-1.541h-5A2.174,2.174,0,0,1,5.4,19.791Zm0-1.107a1.07,1.07,0,1,0-.757-1.827A1.07,1.07,0,0,0,5.4,18.684Zm9.355,0a1.071,1.071,0,1,0-.757-.314A1.031,1.031,0,0,0,14.751,18.684Zm-.96-3.764h3.432l-2.048-2.731H13.791Z" transform="translate(-2 -8)" fill="#121212"/></svg>