<svg xmlns="http://www.w3.org/2000/svg" width="14.358" height="14.097" viewBox="0 0 14.358 14.097"><path d="M6.522,20.607a.675.675,0,0,1-.672-.672v-9.3a.744.744,0,0,1,.109-.4.529.529,0,0,1,.326-.237l8.939-3.441a.625.625,0,0,1,.633.069.653.653,0,0,1,.3.564v6.17h1.562a1.246,1.246,0,0,1,2.492,0v6.566a.675.675,0,0,1-.672.672ZM7.155,19.3h3.639V14.041a.675.675,0,0,1,.672-.672h3.382V8.088L7.155,11.055Zm4.944,0h2.749V17.779a.653.653,0,1,1,1.305,0V19.3H18.9V14.674H12.1ZM9.608,12.182ZM15.5,19.3ZM15.5,18.867Z" transform="translate(-5.85 -6.51)" fill="#85553a"/></svg>