<svg xmlns="http://www.w3.org/2000/svg" width="6.949" height="9.263" viewBox="0 0 6.949 9.263"><path d="M8.4,9.263H4.546a1.549,1.549,0,0,1-1.175-.54A1.521,1.521,0,0,1,3.018,7.5a4.833,4.833,0,0,1,1.7-2.872,4.833,4.833,0,0,1-1.7-2.873A1.521,1.521,0,0,1,3.372.54,1.549,1.549,0,0,1,4.546,0H8.4A1.55,1.55,0,0,1,9.579.54a1.522,1.522,0,0,1,.354,1.218,4.846,4.846,0,0,1-1.7,2.873,4.847,4.847,0,0,1,1.7,2.875,1.522,1.522,0,0,1-.354,1.218A1.55,1.55,0,0,1,8.4,9.263ZM8.4.772H4.546a.778.778,0,0,0-.59.27.741.741,0,0,0-.176.6A4.328,4.328,0,0,0,5.556,4.328a.386.386,0,0,1,0,.605A4.338,4.338,0,0,0,3.781,7.619a.741.741,0,0,0,.176.6.778.778,0,0,0,.59.27H8.4a.777.777,0,0,0,.59-.27.74.74,0,0,0,.176-.6A4.349,4.349,0,0,0,7.394,4.934a.386.386,0,0,1,0-.6A4.345,4.345,0,0,0,9.17,1.643a.74.74,0,0,0-.178-.6A.777.777,0,0,0,8.4.772ZM7.895,7.719H5.053a.386.386,0,0,1-.358-.53A4.317,4.317,0,0,1,6.035,5.54l.2-.159a.386.386,0,0,1,.481,0l.2.157a4.361,4.361,0,0,1,1.34,1.65.386.386,0,0,1-.357.531Zm-2.18-.772H7.232a4.466,4.466,0,0,0-.757-.772A4.361,4.361,0,0,0,5.715,6.947Z" transform="translate(-3.001)" fill="#fff"/></svg>