<svg xmlns="http://www.w3.org/2000/svg" width="11.609" height="14.511" viewBox="0 0 11.609 14.511"><path d="M13.8,10.494a2.789,2.789,0,0,0,2.113-.916,3.1,3.1,0,0,0,.862-2.2V5.088H10.83V7.374a3.1,3.1,0,0,0,.862,2.2A2.789,2.789,0,0,0,13.8,10.494ZM8,18.511V17.423H9.741v-2.3a4.317,4.317,0,0,1,.662-2.331,3.759,3.759,0,0,1,1.841-1.533A3.745,3.745,0,0,1,10.4,9.714a4.363,4.363,0,0,1-.662-2.34V5.088H8V4H19.609V5.088H17.868V7.374a4.363,4.363,0,0,1-.662,2.34,3.745,3.745,0,0,1-1.841,1.542,3.759,3.759,0,0,1,1.841,1.533,4.317,4.317,0,0,1,.662,2.331v2.3h1.741v1.088Z" transform="translate(-8 -4)" fill="#121212"/></svg>