<svg xmlns="http://www.w3.org/2000/svg" width="14.531" height="10.898" viewBox="0 0 14.531 10.898"><path d="M9.6,16a1.211,1.211,0,0,0-.925.429l-.149.177H6.009l-.149-.177A1.211,1.211,0,0,0,4.935,16H1.514A1.514,1.514,0,0,0,0,17.514H0a1.514,1.514,0,0,0,1.514,1.514h11.5a1.514,1.514,0,0,0,1.514-1.514h0A1.514,1.514,0,0,0,13.018,16Z" transform="translate(0 -8.129)" fill="#fff"/><path d="M2.605,9.66H5.724a2.418,2.418,0,0,1,1.6.605H8.781a2.422,2.422,0,0,1,1.6-.605H13.5a2.972,2.972,0,0,1,.605.067v-3.7A3.031,3.031,0,0,0,11.082,3H5.027A3.031,3.031,0,0,0,2,6.027v3.7a2.972,2.972,0,0,1,.605-.067Z" transform="translate(-0.789 -3)" fill="#fff"/></svg>