<svg xmlns="http://www.w3.org/2000/svg" xmlns:xlink="http://www.w3.org/1999/xlink" width="45.766" height="49.809" viewBox="0 0 45.766 49.809"><defs><clipPath id="clip-path"><rect id="Rectangle_3748" data-name="Rectangle 3748" width="45.766" height="49.809" fill="none"/></clipPath></defs><g id="Groupe_15285" data-name="Groupe 15285" clip-path="url(#clip-path)"><path id="Tracé_31813" data-name="Tracé 31813" d="M34.811,35.361c-3.732,2.416-8.128,6.585-11.5,6.585a3.333,3.333,0,0,1-3.5-2.852,4.088,4.088,0,0,1-.043-.6,11.354,11.354,0,0,1,3.219-6.922c-.1-.367-.179-.725-.24-1.048-.364-1.915-1.8-12.575-1.8-12.575s-.822-6.3-5.36-7.583c.116.729,2.642,13.094,3.062,15.316a21.021,21.021,0,0,1,.194,4.9c-.25,1.666-1.785,3.325-3.936,4.824,0,0-7.866,5.655-14.9,6.453v4.055H39.566V33.176a14.642,14.642,0,0,0-4.755,2.192" transform="translate(-0.006 -6.349)" fill="#85553a"/><path id="Tracé_31814" data-name="Tracé 31814" d="M4.216,118.406q-.2-.233-.422-.516c-.149-.187-.305-.382-.466-.586s-.317-.4-.466-.588-.285-.357-.405-.512l-.185-.237a3.459,3.459,0,0,0,.413-.119,2.364,2.364,0,0,0,.6-.315,1.85,1.85,0,0,0,.478-.516,1.588,1.588,0,0,0,.046-1.457,1.239,1.239,0,0,0-.421-.453,1.794,1.794,0,0,0-.6-.242,3.4,3.4,0,0,0-.712-.071H.648c-.379,0-.508,0-.54-.005l-.108,0,.005.108q.026.57.047,1.119c.015.353.022.717.022,1.119v1.484c0,.392-.007.769-.022,1.119s-.047,1.087-.047,1.087l-.005.1H1.048l0-.1S1.01,118.1,1,117.729s-.022-.743-.022-1.119v-.533h.191c.172.179.36.395.575.659s.438.547.651.823.406.534.581.774.392.544.392.544l.028.04H4.683l-.153-.162s-.186-.2-.316-.35m-3.24-3.279c0-.3.006-.614.016-.929l.032-.86c.073-.008.157-.015.251-.02.126-.009.288-.013.494-.013a2.216,2.216,0,0,1,.438.046,1.14,1.14,0,0,1,.4.163.9.9,0,0,1,.293.318,1.023,1.023,0,0,1,.113.509,1.113,1.113,0,0,1-.145.592,1.177,1.177,0,0,1-.372.375,1.508,1.508,0,0,1-.5.2,3.259,3.259,0,0,1-.847.05,1.13,1.13,0,0,1-.172-.018Z" transform="translate(0 -69.113)" fill="#424548"/><path id="Tracé_31815" data-name="Tracé 31815" d="M26.868,118.305c-.186.014-.384.026-.593.034s-.422.014-.639.014H25.12c0-.1-.007-.23-.009-.389V116h.323l.562.009c.2,0,.395.01.592.021s.516.043.516.043l.1.009v-.736l-.1.009s-.258.021-.4.03l-.319.018-.142.008c-.166.008-.348.015-.55.022-.172,0-.37.008-.584.008v-1.044c0-.211,0-.4.012-.564q.011-.209.019-.435.362,0,.628.013c.2.009.385.018.554.03l.483.035c.152.012.506.034.506.034l.1.007v-.72h-.1l-.768.031c-.505.017-1.025.017-1.534,0-.258-.009-.516-.018-.774-.031l-.1,0,.005.106q.027.552.047,1.1c.015.361.022.738.022,1.119V116.6c0,.38-.007.755-.022,1.114s-.03.732-.047,1.1l-.005.1.1,0c.252-.012.508-.017.781-.017h1.567c.258,0,.769.017.769.017h.1v-.7l-.112.019s-.3.051-.479.064" transform="translate(-14.79 -69.116)" fill="#424548"/><path id="Tracé_31816" data-name="Tracé 31816" d="M48.1,112.832c-.724.017-1.5.017-2.223,0-.362-.009-1.113-.031-1.113-.031h-.1v.751l.108-.013s.258-.031.406-.043.309-.022.472-.029.326-.014.489-.017h.376c.015.573.023,1.142.023,1.692v1.484c0,.363-.007.74-.022,1.119s-.047,1.088-.047,1.088l0,.1H47.51l0-.1s-.034-.719-.048-1.088-.022-.749-.022-1.119v-1.484c0-.559.008-1.128.023-1.692h.376c.163,0,.325.009.489.017s.321.018.472.029.405.043.406.043l.108.013V112.8h-.1l-1.114.031" transform="translate(-27.368 -69.121)" fill="#424548"/><path id="Tracé_31817" data-name="Tracé 31817" d="M71.542,118.009q-.176-.4-.4-.9c-.146-.336-.3-.7-.47-1.09s-.334-.786-.5-1.182-.331-.791-.492-1.179-.311-.749-.448-1.083l-.025-.059h-.293l-.025.058q-.673,1.545-1.337,3.038c-.439.983-1.355,2.983-1.364,3l-.062.136h.86l.021-.067c0-.006.188-.6.335-1s.3-.8.477-1.222q.235-.007.463-.01c.354-.005.725-.005,1.094,0q.251,0,.5.01.1.258.219.542l.258.621c.086.2.158.4.228.585s.163.476.163.476l.022.066h1.141l-.071-.139s-.172-.344-.287-.6m-1.868-2.133c-.114,0-.227.006-.344.008-.31.007-.613.008-.946,0-.111,0-.219-.006-.324-.008l.8-1.856Z" transform="translate(-40.523 -68.947)" fill="#424548"/><path id="Tracé_31818" data-name="Tracé 31818" d="M96.685,118.246c-.009,0-.835.09-1.2.1q-.516.013-1.077.013-.008-.6-.015-1.333-.009-.8-.009-1.885c0-.384.007-.758.021-1.119s.048-1.119.048-1.119v-.1H93.409l0,.1s.033.751.047,1.119.022.739.022,1.119v1.484c0,.375-.008.751-.022,1.119s-.03.731-.047,1.087l-.005.1h.1c.286-.012.546-.017.794-.017H95.9c.263,0,.791.017.792.017h.107v-.7Z" transform="translate(-57.239 -69.125)" fill="#424548"/><path id="Tracé_31819" data-name="Tracé 31819" d="M.009,0V33.595c7.525-1.086,14.2-5.862,14.2-5.862,2.667-1.736,4.085-3.259,4.085-3.622a49.057,49.057,0,0,0-1-5.095S14.578,5.507,14.385,4.208a3.9,3.9,0,0,1,.576-2.451s5.812.2,7.092,9.773,1.48,11.868,2.015,13.221,1.045,2.425,2.347,2.143a2.511,2.511,0,0,0,1.5-.994A5.249,5.249,0,0,0,26.6,23.517l.194-2.087A6.241,6.241,0,0,1,28.512,25.3c0,2.144-.688,3.274-2.548,3.543-1.5.214-2.433-1.714-2.932-3.471a16.458,16.458,0,0,0-2.344,5.257,3.137,3.137,0,0,0-.043.853,2.156,2.156,0,0,0,2.31,2.151c1.917,0,5.291-2.2,9.4-4.955a20.883,20.883,0,0,1,7.205-3.7V0ZM23.678,8.737h0c-.151-.07-.172-.139-.113-.333a4.626,4.626,0,0,1,.182-.478c.079-.184.186-.249.379-.18a2.038,2.038,0,0,1,.536.286A3.037,3.037,0,0,1,25.677,9.5c.056.158.172.472.172.472l.048.115s.172-1.133.269-1.635a5.969,5.969,0,0,1,.215-.717.94.94,0,0,1,.11-.212c.191-.293.413-.412.638-.35.287.08.641.447.614.709a3.442,3.442,0,0,1-.24.7c-.127-.166-.2-.272-.287-.372-.283-.335-.5-.335-.694.059a4.082,4.082,0,0,0-.287.973c-.106.534-.172,1.076-.268,1.612a.986.986,0,0,1-.165.361,7.034,7.034,0,0,0-1.23-2.281.25.25,0,0,1-.281.078h0L24.263,9h0c-.125-.052-.583-.258-.583-.258m3.727,10.325-2.141-1.251.786-1.346L24.17,15.359l1.008-1.721,2.14,1.255-.786,1.347,1.887,1.106Z" transform="translate(-0.006 -0.001)" fill="#85553a"/><path id="Tracé_31820" data-name="Tracé 31820" d="M108.138,97.573q0-.31-.009-.623h-.164l-.172.006-.166.011a1.107,1.107,0,0,0-.143.015v-.19l.388.01c.128,0,.258,0,.388,0s.258,0,.388,0l.388-.01v.19s-.086-.011-.144-.015l-.165-.011-.172-.006h-.164q-.009.312-.009.623v.516c0,.131,0,.258.008.39s.016.39.016.39h-.3s.012-.258.016-.39.008-.258.008-.39Z" transform="translate(-65.865 -59.313)" fill="#85553a"/><path id="Tracé_31821" data-name="Tracé 31821" d="M112.367,96.693q.207.43.42.83t.444.829l.086-.166c.037-.072.086-.154.133-.245l.163-.3.172-.325q.086-.164.172-.325t.162-.3h.039q.033.288.063.558t.059.531q.028.258.059.516c.02.172.066.516.066.516h-.283s-.045-.533-.066-.786-.049-.509-.082-.768h-.006q-.208.379-.408.755t-.38.784h-.028q-.178-.376-.376-.76t-.4-.774h-.006q-.021.187-.046.405t-.046.43c-.014.142-.027.275-.036.4s-.015.316-.015.316h-.211s.053-.344.082-.522.054-.364.08-.546.049-.362.072-.54.042-.344.059-.508Z" transform="translate(-68.646 -59.252)" fill="#85553a"/></g></svg>